<svg width="22" height="21" viewBox="0 0 22 21" fill="none" xmlns="http://www.w3.org/2000/svg">
<path d="M11.1742 1.03407C5.64979 0.950993 1.10971 5.24489 1.02882 10.6237C0.964097 14.9279 3.77388 18.621 7.72658 19.9676C8.22515 20.0668 8.41299 19.768 8.41688 19.5095C8.42036 19.2782 8.42124 18.6652 8.42929 17.8532C5.6391 18.3987 5.08098 16.4959 5.08098 16.4959C4.64294 15.3649 3.99004 15.0543 3.99004 15.0543C3.09339 14.4369 4.06892 14.464 4.06892 14.464C5.07196 14.5468 5.58532 15.4906 5.58532 15.4906C6.4545 16.9932 7.90997 16.5847 8.48531 16.3447C8.58478 15.7158 8.84869 15.291 9.13816 15.0516C6.92124 14.7746 4.59993 13.9019 4.65605 10.1701C4.67204 9.10709 5.07256 8.24398 5.7244 7.5722C5.61562 7.32436 5.29305 6.32894 5.85066 4.99563C5.85066 4.99563 6.69199 4.74721 8.58533 6.03559C9.3885 5.83121 10.24 5.73661 11.09 5.74444C11.9398 5.76218 12.7881 5.88233 13.5848 6.11077C15.5035 4.87972 16.337 5.15332 16.337 5.15332C16.8542 6.5028 16.5019 7.48807 16.3982 7.73271C17.0254 8.42373 17.3998 9.29849 17.3838 10.3615C17.3275 14.1032 14.9779 14.8916 12.7495 15.0977C13.0951 15.3953 13.4111 15.9974 13.3974 16.9101C13.3778 18.2135 13.3495 19.2607 13.3448 19.577C13.3409 19.8322 13.5113 20.1397 14.0252 20.0499C18.0448 18.8314 20.9619 15.222 21.0266 10.9244C21.1074 5.54561 16.696 1.11711 11.1742 1.03407Z" fill="white"/>
</svg>
